# xmcd
#
# Track frame offsets:
#	150
#	16906
#	33743
#	48281
#	62569
#	78916
#	98511
#	114120
#	130940
#	140862
#	156364
#	169146
#	183958
#	202395
#	214083
#	230241
#
# Disc length: 3250 seconds
#
# Revision: 1
# Processed by: cddbd v1.5.2PL0 Copyright (c) Steve Scherf et al.
# Submitted via: EZCDAudioConverter 2.1.7.1
#
DISCID=e10cb010
DTITLE=Antena - Camino Del Sol 1/2
DYEAR=1982
DGENRE=
TTITLE0=Camino Del Sol
TTITLE1=To Climb The Cliff
TTITLE2=Silly Things
TTITLE3=Sisséxa
TTITLE4=Achilles
TTITLE5=Bye Bye Papaye
TTITLE6=Noëlle À Hawaii
TTITLE7=Les Demoiselles De Rochefort
TTITLE8=Spiral Staircase
TTITLE9=Unable
TTITLE10=The Boy From Ipanema
TTITLE11=Seaside Weekend
TTITLE12=Frantz
TTITLE13=Ingénue
TTITLE14=Joppo and Eno
TTITLE15=On The Boat
EXTD=
EXTT0=
EXTT1=
EXTT2=
EXTT3=
EXTT4=
EXTT5=
EXTT6=
EXTT7=
EXTT8=
EXTT9=
EXTT10=
EXTT11=
EXTT12=
EXTT13=
EXTT14=
EXTT15=
PLAYORDER=
